# xmcd
#
# Track frame offsets: 
#        150
#        17385
#        35027
#        53738
#        78341
#        95734
#        114250
#        136753
#        154649
#        172974
#        185776
#        206266
#        227275
#        244240
#        261647
#        278235
#        296269
#
# Disc length: 4195 seconds
#
# Revision: 4
# Processed by: cddbd v1.5.2PL0 Copyright (c) Steve Scherf et al.
# Submitted via: ExactAudioCopy v0.90b4
#
DISCID=e0106111
DTITLE=Various Artist - X-Mix Radioactive Series February 1996
DYEAR=1996
DGENRE=Club
TTITLE0=Alanis Morissette - Ironic (Album Version)
TTITLE1=Lina Santiago - Feels So Good (X-Mix Re-Edit)
TTITLE2=Sa Deuce - Don't Waste My Time (Radio Edit)
TTITLE3=Black Grape - In The Name Of The Father (X-Mix Re-Edit)
TTITLE4=Devone - Energy (X-Mix Re-Edit)
TTITLE5=Xscape - Do You Want To (Radio Edit)
TTITLE6=Spacehog - In The Meantime (Radio Edit)
TTITLE7=Groove Theory - Keep Tryin' (Radio Edit)
TTITLE8=Bel Canto - Rumor (Album Edit)
TTITLE9=Presidents of The United States of America, The - Peaches (Alb
TTITLE9=um Version)
TTITLE10=Denine - All Cried Out (Radio Edit)
TTITLE11=Fugees, The - Fu-Gee-La (X-Mix Re-Edit)
TTITLE12=Gin Blossoms - Follow You Down (Edit)
TTITLE13=Ace Of Base - Lucky Love (X-Mix Re-Edit)
TTITLE14=Terry Ellis - Wherever You Are (Radio Edit)
TTITLE15=4 Hero - Mr. Kirk (X-Mix Re-Edit)
TTITLE16=D:Ream - Shoot Me With Your Love (X-Mix Re-Edit)
EXTD=
EXTT0=
EXTT1=
EXTT2=
EXTT3=
EXTT4=
EXTT5=
EXTT6=
EXTT7=
EXTT8=
EXTT9=
EXTT10=
EXTT11=
EXTT12=
EXTT13=
EXTT14=
EXTT15=
EXTT16=
PLAYORDER=
